<?xml version="1.0" encoding="UTF-8" standalone="no" ?>
<!DOCTYPE svg PUBLIC "-//W3C//DTD SVG 1.1//EN" "http://www.w3.org/Graphics/SVG/1.1/DTD/svg11.dtd">
<svg xmlns="http://www.w3.org/2000/svg" xmlns:xlink="http://www.w3.org/1999/xlink" version="1.1" width="452" height="349" viewBox="0 0 452 349" xml:space="preserve">
<desc>Created with Fabric.js 3.6.3</desc>
<defs>
</defs>
<g transform="matrix(1 0 0 1 226.5 135)"  >
<g style=""   >
		<g transform="matrix(1 0 0 1 96.46 92.93)"  >
<path style="stroke: none; stroke-width: 1; stroke-dasharray: none; stroke-linecap: butt; stroke-dashoffset: 0; stroke-linejoin: miter; stroke-miterlimit: 4; fill: rgb(69,90,100); fill-rule: nonzero; opacity: 1;"  transform=" translate(-322.96, -307.94)" d="M 303.834 312.856 C 302.469 311.343 305.687 302.508 320.959 301.883 C 336.23 301.257 342.348 306.818 342.37 312.856 C 342.382 315.528 303.834 312.856 303.834 312.856 Z" stroke-linecap="round" />
</g>
		<g transform="matrix(1 0 0 1 139.64 -81.4)"  >
<path style="stroke: none; stroke-width: 1; stroke-dasharray: none; stroke-linecap: butt; stroke-dashoffset: 0; stroke-linejoin: miter; stroke-miterlimit: 4; fill: rgb(245,245,245); fill-rule: nonzero; opacity: 1;"  transform=" translate(-366.14, -133.6)" d="M 296.295 81.7055 L 279.329 186.626 H 434.271 L 452.942 80.5798 L 296.295 81.7055 Z" stroke-linecap="round" />
</g>
		<g transform="matrix(1 0 0 1 147.35 -129.08)"  >
<path style="stroke: none; stroke-width: 1; stroke-dasharray: none; stroke-linecap: butt; stroke-dashoffset: 0; stroke-linejoin: miter; stroke-miterlimit: 4; fill: rgb(224,224,224); fill-rule: nonzero; opacity: 1;"  transform=" translate(-373.85, -85.92)" d="M 294.748 91.2458 C 294.817 90.8819 451.168 90.6545 451.168 90.6545 L 452.942 80.5798 L 296.295 81.7169 L 294.748 91.2685" stroke-linecap="round" />
</g>
		<g transform="matrix(1 0 0 1 74.9 -128.57)"  >
<path style="stroke: none; stroke-width: 1; stroke-dasharray: none; stroke-linecap: butt; stroke-dashoffset: 0; stroke-linejoin: miter; stroke-miterlimit: 4; fill: rgb(38,50,56); fill-rule: nonzero; opacity: 1;"  transform=" translate(-301.4, -86.44)" d="M 302.845 86.4245 C 302.847 86.7106 302.764 86.9909 302.607 87.2299 C 302.45 87.4689 302.225 87.6557 301.961 87.7668 C 301.697 87.8778 301.407 87.908 301.126 87.8536 C 300.845 87.7992 300.587 87.6625 300.383 87.461 C 300.18 87.2595 300.042 87.0022 299.985 86.7218 C 299.928 86.4414 299.956 86.1504 300.065 85.8859 C 300.174 85.6213 300.359 85.3951 300.597 85.2359 C 300.835 85.0767 301.114 84.9918 301.401 84.9917 C 301.59 84.9902 301.777 85.0262 301.952 85.0975 C 302.127 85.1688 302.287 85.2742 302.421 85.4073 C 302.555 85.5405 302.662 85.699 302.734 85.8736 C 302.807 86.0481 302.845 86.2354 302.845 86.4245 Z" stroke-linecap="round" />
</g>
		<g transform="matrix(1 0 0 1 81.96 -128.58)"  >
<path style="stroke: none; stroke-width: 1; stroke-dasharray: none; stroke-linecap: butt; stroke-dashoffset: 0; stroke-linejoin: miter; stroke-miterlimit: 4; fill: rgb(38,50,56); fill-rule: nonzero; opacity: 1;"  transform=" translate(-308.46, -86.42)" d="M 309.895 86.4245 C 309.895 86.7078 309.811 86.9849 309.653 87.2205 C 309.496 87.4561 309.272 87.6397 309.01 87.7482 C 308.748 87.8566 308.46 87.885 308.182 87.8297 C 307.904 87.7744 307.649 87.638 307.449 87.4376 C 307.248 87.2372 307.112 86.9819 307.057 86.704 C 307.001 86.4261 307.03 86.138 307.138 85.8762 C 307.247 85.6144 307.43 85.3906 307.666 85.2332 C 307.902 85.0758 308.179 84.9917 308.462 84.9917 C 308.842 84.9917 309.206 85.1427 309.475 85.4114 C 309.744 85.6801 309.895 86.0445 309.895 86.4245 Z" stroke-linecap="round" />
</g>
		<g transform="matrix(1 0 0 1 89.01 -128.57)"  >
<path style="stroke: none; stroke-width: 1; stroke-dasharray: none; stroke-linecap: butt; stroke-dashoffset: 0; stroke-linejoin: miter; stroke-miterlimit: 4; fill: rgb(38,50,56); fill-rule: nonzero; opacity: 1;"  transform=" translate(-315.51, -86.44)" d="M 316.956 86.4245 C 316.958 86.7106 316.876 86.9909 316.718 87.2299 C 316.561 87.4689 316.336 87.6557 316.073 87.7668 C 315.809 87.8778 315.518 87.908 315.237 87.8536 C 314.956 87.7992 314.698 87.6625 314.495 87.461 C 314.292 87.2595 314.153 87.0022 314.096 86.7218 C 314.04 86.4414 314.068 86.1504 314.177 85.8859 C 314.286 85.6213 314.471 85.3951 314.708 85.2359 C 314.946 85.0767 315.226 84.9918 315.512 84.9917 C 315.701 84.9902 315.889 85.0262 316.064 85.0975 C 316.239 85.1688 316.398 85.2742 316.532 85.4073 C 316.667 85.5405 316.773 85.699 316.846 85.8736 C 316.919 86.0481 316.956 86.2354 316.956 86.4245 Z" stroke-linecap="round" />
</g>
		<g transform="matrix(1 0 0 1 107.95 -79.59)"  >
<path style="stroke: none; stroke-width: 1; stroke-dasharray: none; stroke-linecap: butt; stroke-dashoffset: 0; stroke-linejoin: miter; stroke-miterlimit: 4; fill: rgb(238,66,72); fill-rule: nonzero; opacity: 1;"  transform=" translate(-334.46, -135.41)" d="M 334.456 138.379 L 315.068 160.802 C 311.408 158.319 308.4 154.989 306.299 151.095 C 304.199 147.202 303.069 142.859 303.004 138.436 C 303.004 122.846 317.206 110.008 334.456 110.008 C 351.706 110.008 365.908 122.835 365.908 138.436 L 334.456 138.379 Z" stroke-linecap="round" />
</g>
		<g transform="matrix(1 0 0 1 116.12 -58.96)"  >
<path style="stroke: none; stroke-width: 1; stroke-dasharray: none; stroke-linecap: butt; stroke-dashoffset: 0; stroke-linejoin: miter; stroke-miterlimit: 4; fill: rgb(38,50,56); fill-rule: nonzero; opacity: 1;"  transform=" translate(-342.62, -156.04)" d="M 336.946 141.938 C 336.852 142.097 336.741 142.245 336.617 142.381 L 335.605 143.587 L 331.761 148.135 C 328.418 152.047 323.665 157.573 317.968 164.225 V 163.861 C 322.263 166.818 327.226 168.662 332.409 169.228 C 338.261 169.903 344.188 169.008 349.58 166.636 C 354.726 164.4 359.17 160.813 362.44 156.254 C 363.914 154.128 365.095 151.814 365.954 149.374 C 366.703 147.095 367.158 144.73 367.307 142.336 L 367.557 142.597 L 345.384 142.222 L 339.152 142.086 L 337.504 142.029 C 337.311 142.047 337.116 142.047 336.924 142.029 C 337.105 142.011 337.288 142.011 337.469 142.029 H 339.095 H 345.293 L 367.557 142.177 H 367.83 V 142.45 C 367.701 144.897 367.25 147.317 366.488 149.647 C 365.625 152.14 364.427 154.504 362.929 156.675 C 359.599 161.355 355.048 165.033 349.773 167.307 C 344.281 169.709 338.25 170.612 332.296 169.922 C 327.024 169.324 321.983 167.425 317.627 164.396 L 317.4 164.236 L 317.581 164.02 L 331.613 148.021 L 335.536 143.587 L 336.582 142.45 C 336.689 142.269 336.81 142.097 336.946 141.938 Z" stroke-linecap="round" />
</g>
		<g transform="matrix(1 0 0 1 121.33 -93.51)"  >
<path style="stroke: none; stroke-width: 1; stroke-dasharray: none; stroke-linecap: butt; stroke-dashoffset: 0; stroke-linejoin: miter; stroke-miterlimit: 4; fill: rgb(38,50,56); fill-rule: nonzero; opacity: 1;"  transform=" translate(-347.83, -121.49)" d="M 347.828 123.255 C 348.802 123.255 349.591 122.466 349.591 121.493 C 349.591 120.519 348.802 119.73 347.828 119.73 C 346.855 119.73 346.066 120.519 346.066 121.493 C 346.066 122.466 346.855 123.255 347.828 123.255 Z" stroke-linecap="round" />
</g>
		<g transform="matrix(1 0 0 1 139.72 -100.11)"  >
<path style="stroke: none; stroke-width: 1; stroke-dasharray: none; stroke-linecap: butt; stroke-dashoffset: 0; stroke-linejoin: miter; stroke-miterlimit: 4; fill: rgb(38,50,56); fill-rule: nonzero; opacity: 1;"  transform=" translate(-366.21, -114.89)" d="M 384.602 108.598 C 384.053 108.683 383.498 108.721 382.942 108.712 L 378.394 108.803 C 374.584 108.803 369.297 108.894 363.509 108.894 H 360.735 L 360.939 108.814 C 357.289 112.453 354.037 115.637 351.683 117.911 L 348.897 120.572 C 348.579 120.917 348.22 121.223 347.828 121.481 C 348.104 121.103 348.413 120.749 348.749 120.424 C 349.443 119.685 350.341 118.752 351.41 117.638 C 353.684 115.284 356.891 112.032 360.507 108.371 L 360.587 108.291 H 363.577 C 369.388 108.291 374.653 108.291 378.462 108.371 L 383.01 108.473 C 383.544 108.464 384.077 108.506 384.602 108.598 Z" stroke-linecap="round" />
</g>
		<g transform="matrix(1 0 0 1 179.01 -100.11)"  >
<path style="stroke: none; stroke-width: 1; stroke-dasharray: none; stroke-linecap: butt; stroke-dashoffset: 0; stroke-linejoin: miter; stroke-miterlimit: 4; fill: rgb(38,50,56); fill-rule: nonzero; opacity: 1;"  transform=" translate(-405.51, -114.89)" d="M 424.537 130.749 C 424.545 130.546 424.571 130.344 424.617 130.146 C 424.685 129.737 424.776 129.18 424.901 128.463 L 426.038 122.107 L 430.143 99.2965 L 430.382 99.5808 L 386.342 99.6376 L 386.626 99.3988 V 99.5125 V 99.649 V 99.9105 L 386.524 100.434 L 386.331 101.491 L 385.944 103.583 C 385.682 104.971 385.432 106.347 385.171 107.711 C 384.67 110.44 384.174 113.124 383.681 115.762 C 382.692 121.015 381.748 125.996 380.873 130.783 L 380.6 130.464 L 412.325 130.59 L 421.422 130.669 H 423.844 H 424.469 H 424.696 H 424.503 H 423.9 H 421.524 L 412.518 130.737 L 380.679 130.862 H 380.361 L 380.418 130.544 C 381.293 125.802 382.214 120.765 383.192 115.5 C 383.67 112.873 384.17 110.19 384.67 107.461 C 384.932 106.085 385.182 104.709 385.444 103.322 C 385.569 102.628 385.694 101.935 385.83 101.23 L 386.024 100.183 L 386.115 99.6604 L 386.171 99.3875 V 99.2624 V 99.16 L 386.467 98.9099 L 430.507 98.9667 H 430.666 L 430.609 99.251 C 428.79 108.769 427.289 116.626 426.243 122.141 C 425.708 124.836 425.299 126.951 425.003 128.44 L 424.674 130.066 C 424.583 130.578 424.537 130.76 424.537 130.749 Z" stroke-linecap="round" />
</g>
		<g transform="matrix(1 0 0 1 124.09 -58.05)"  >
<path style="stroke: none; stroke-width: 1; stroke-dasharray: none; stroke-linecap: butt; stroke-dashoffset: 0; stroke-linejoin: miter; stroke-miterlimit: 4; fill: rgb(38,50,56); fill-rule: nonzero; opacity: 1;"  transform=" translate(-350.59, -156.95)" d="M 350.592 158.71 C 351.565 158.71 352.354 157.921 352.354 156.948 C 352.354 155.974 351.565 155.185 350.592 155.185 C 349.618 155.185 348.829 155.974 348.829 156.948 C 348.829 157.921 349.618 158.71 350.592 158.71 Z" stroke-linecap="round" />
</g>
		<g transform="matrix(1 0 0 1 140.09 -58.05)"  >
<path style="stroke: none; stroke-width: 1; stroke-dasharray: none; stroke-linecap: butt; stroke-dashoffset: 0; stroke-linejoin: miter; stroke-miterlimit: 4; fill: rgb(38,50,56); fill-rule: nonzero; opacity: 1;"  transform=" translate(-366.59, -156.95)" d="M 382.59 156.948 C 382.59 157.118 375.426 157.243 366.591 157.243 C 357.755 157.243 350.591 157.118 350.591 156.948 C 350.591 156.777 357.755 156.652 366.591 156.652 C 375.426 156.652 382.59 156.788 382.59 156.948 Z" stroke-linecap="round" />
</g>
		<g transform="matrix(1 0 0 1 178.21 -55.97)"  >
<path style="stroke: none; stroke-width: 1; stroke-dasharray: none; stroke-linecap: butt; stroke-dashoffset: 0; stroke-linejoin: miter; stroke-miterlimit: 4; fill: rgb(38,50,56); fill-rule: nonzero; opacity: 1;"  transform=" translate(-404.71, -159.04)" d="M 424.537 170.684 C 424.551 170.538 424.578 170.393 424.617 170.252 C 424.685 169.945 424.776 169.535 424.901 169.024 C 425.163 167.886 425.538 166.374 426.038 164.396 C 427.028 160.37 428.438 154.628 430.177 147.566 L 430.393 147.839 L 384.977 147.908 L 385.262 147.692 V 147.76 V 147.851 V 148.044 L 385.159 148.431 L 384.966 149.181 L 384.591 150.705 C 384.329 151.706 384.079 152.706 383.829 153.707 L 382.214 159.665 C 381.236 163.52 380.293 167.25 379.383 170.809 L 379.121 170.468 L 411.699 170.593 L 421.115 170.661 H 423.639 H 424.298 H 424.537 H 424.333 H 423.696 H 421.228 L 411.859 170.729 L 379.121 170.854 H 378.758 L 378.848 170.502 C 379.747 166.943 380.679 163.202 381.646 159.347 C 382.131 157.414 382.627 155.454 383.135 153.468 L 383.886 150.466 L 384.272 148.954 L 384.466 148.192 L 384.557 147.805 V 147.623 V 147.521 V 147.453 L 384.841 147.225 L 430.257 147.305 H 430.666 L 430.598 147.578 C 428.756 154.673 427.266 160.438 426.22 164.475 C 425.697 166.42 425.288 167.955 425.003 169.024 C 424.867 169.513 424.765 169.899 424.685 170.161 C 424.605 170.422 424.537 170.695 424.537 170.684 Z" stroke-linecap="round" />
</g>
		<g transform="matrix(1 0 0 1 179.39 -106)"  >
<path style="stroke: none; stroke-width: 1; stroke-dasharray: none; stroke-linecap: butt; stroke-dashoffset: 0; stroke-linejoin: miter; stroke-miterlimit: 4; fill: rgb(38,50,56); fill-rule: nonzero; opacity: 1;"  transform=" translate(-405.89, -109)" d="M 420.955 108.996 C 420.955 109.167 414.212 109.292 405.889 109.292 C 397.565 109.292 390.822 109.167 390.822 108.996 C 390.822 108.825 397.565 108.7 405.889 108.7 C 414.212 108.7 420.955 108.837 420.955 108.996 Z" stroke-linecap="round" />
</g>
		<g transform="matrix(1 0 0 1 178.95 -101.06)"  >
<path style="stroke: none; stroke-width: 1; stroke-dasharray: none; stroke-linecap: butt; stroke-dashoffset: 0; stroke-linejoin: miter; stroke-miterlimit: 4; fill: rgb(38,50,56); fill-rule: nonzero; opacity: 1;"  transform=" translate(-405.45, -113.93)" d="M 420.603 113.931 C 420.603 114.102 413.78 114.227 405.457 114.227 C 397.133 114.227 390.299 114.102 390.299 113.931 C 390.299 113.76 397.122 113.635 405.457 113.635 C 413.792 113.635 420.603 113.772 420.603 113.931 Z" stroke-linecap="round" />
</g>
		<g transform="matrix(1 0 0 1 178.6 -96.27)"  >
<path style="stroke: none; stroke-width: 1; stroke-dasharray: none; stroke-linecap: butt; stroke-dashoffset: 0; stroke-linejoin: miter; stroke-miterlimit: 4; fill: rgb(38,50,56); fill-rule: nonzero; opacity: 1;"  transform=" translate(-405.1, -118.73)" d="M 419.727 118.73 C 419.727 118.889 413.178 119.025 405.104 119.025 C 397.031 119.025 390.47 118.889 390.47 118.73 C 390.47 118.57 397.019 118.434 405.104 118.434 C 413.189 118.434 419.727 118.525 419.727 118.73 Z" stroke-linecap="round" />
</g>
		<g transform="matrix(1 0 0 1 179.39 -58.59)"  >
<path style="stroke: none; stroke-width: 1; stroke-dasharray: none; stroke-linecap: butt; stroke-dashoffset: 0; stroke-linejoin: miter; stroke-miterlimit: 4; fill: rgb(38,50,56); fill-rule: nonzero; opacity: 1;"  transform=" translate(-405.89, -156.4)" d="M 420.25 156.402 C 420.25 156.561 413.826 156.697 405.889 156.697 C 397.952 156.697 391.527 156.561 391.527 156.402 C 391.527 156.243 397.963 156.106 405.889 156.106 C 413.814 156.106 420.25 156.254 420.25 156.402 Z" stroke-linecap="round" />
</g>
		<g transform="matrix(1 0 0 1 179.75 -53.14)"  >
<path style="stroke: none; stroke-width: 1; stroke-dasharray: none; stroke-linecap: butt; stroke-dashoffset: 0; stroke-linejoin: miter; stroke-miterlimit: 4; fill: rgb(38,50,56); fill-rule: nonzero; opacity: 1;"  transform=" translate(-406.24, -161.86)" d="M 418.488 161.86 C 418.488 162.03 413.007 162.156 406.241 162.156 C 399.476 162.156 393.995 162.03 393.995 161.86 C 393.995 161.689 399.476 161.564 406.241 161.564 C 413.007 161.564 418.488 161.701 418.488 161.86 Z" stroke-linecap="round" />
</g>
		<g transform="matrix(1 0 0 1 31.16 79.49)"  >
<path style="stroke: none; stroke-width: 1; stroke-dasharray: none; stroke-linecap: butt; stroke-dashoffset: 0; stroke-linejoin: miter; stroke-miterlimit: 4; fill: rgb(69,90,100); fill-rule: nonzero; opacity: 1;"  transform=" translate(-257.66, -294.49)" d="M 235.471 276.105 C 234.925 279.3 219.756 312.867 229.547 312.867 H 278.761 C 278.761 312.867 273.678 308.091 289.063 276.105 H 235.471 Z" stroke-linecap="round" />
</g>
		<g transform="matrix(1 0 0 1 52.26 5.78)"  >
<path style="stroke: none; stroke-width: 1; stroke-dasharray: none; stroke-linecap: butt; stroke-dashoffset: 0; stroke-linejoin: miter; stroke-miterlimit: 4; fill: rgb(69,90,100); fill-rule: nonzero; opacity: 1;"  transform=" translate(-278.75, -220.78)" d="M 203.632 164.066 L 183.517 281.62 H 353.184 L 373.993 159.938 L 203.632 164.066 Z" stroke-linecap="round" />
</g>
		<g transform="matrix(1 0 0 1 52.74 6.7)"  >
<path style="stroke: none; stroke-width: 1; stroke-dasharray: none; stroke-linecap: butt; stroke-dashoffset: 0; stroke-linejoin: miter; stroke-miterlimit: 4; fill: rgb(250,250,250); fill-rule: nonzero; opacity: 1;"  transform=" translate(-279.24, -221.71)" d="M 209.398 169.797 L 192.443 274.729 H 347.374 L 366.045 168.682 L 209.398 169.797 Z" stroke-linecap="round" />
</g>
		<g transform="matrix(1 0 0 1 53.86 7.38)"  >
<path style="stroke: none; stroke-width: 1; stroke-dasharray: none; stroke-linecap: butt; stroke-dashoffset: 0; stroke-linejoin: miter; stroke-miterlimit: 4; fill: rgb(38,50,56); fill-rule: nonzero; opacity: 1;"  transform=" translate(-280.36, -222.38)" d="M 373.993 159.938 L 377.2 162.099 L 355.595 284.815 H 187.997 L 183.517 281.62 H 353.184 L 373.993 159.938 Z" stroke-linecap="round" />
</g>
		<g transform="matrix(1 0 0 1 60.45 -40.98)"  >
<path style="stroke: none; stroke-width: 1; stroke-dasharray: none; stroke-linecap: butt; stroke-dashoffset: 0; stroke-linejoin: miter; stroke-miterlimit: 4; fill: rgb(235,235,235); fill-rule: nonzero; opacity: 1;"  transform=" translate(-286.95, -174.03)" d="M 207.862 179.349 C 207.919 178.973 364.271 178.757 364.271 178.757 L 366.045 168.682 L 209.398 169.82 L 207.862 179.371" stroke-linecap="round" />
</g>
		<g transform="matrix(1 0 0 1 108.17 19.75)"  >
<path style="stroke: none; stroke-width: 1; stroke-dasharray: none; stroke-linecap: butt; stroke-dashoffset: 0; stroke-linejoin: miter; stroke-miterlimit: 4; fill: rgb(38,50,56); fill-rule: nonzero; opacity: 1;"  transform=" translate(-334.67, -234.75)" d="M 322.96 265.416 V 265.12 L 323.096 264.245 C 323.24 263.411 323.434 262.274 323.676 260.833 C 324.211 257.775 324.961 253.385 325.894 247.939 C 327.827 236.909 330.522 221.558 333.58 204.137 V 203.887 H 346.384 L 346.327 204.24 C 341.586 229.927 337.435 252.498 335.036 265.473 V 265.609 H 334.911 L 325.996 265.518 H 323.722 H 323.165 H 323.779 H 326.132 L 334.945 265.427 L 334.786 265.552 L 345.793 204.274 L 346.089 204.615 H 333.899 L 334.183 204.376 C 331.033 221.694 328.27 236.943 326.223 247.916 C 325.223 253.374 324.404 257.775 323.835 260.845 C 323.551 262.334 323.335 263.506 323.176 264.347 C 323.096 264.722 323.039 265.029 322.994 265.257 C 322.985 265.31 322.973 265.363 322.96 265.416 Z" stroke-linecap="round" />
</g>
		<g transform="matrix(1 0 0 1 87.31 28.56)"  >
<path style="stroke: none; stroke-width: 1; stroke-dasharray: none; stroke-linecap: butt; stroke-dashoffset: 0; stroke-linejoin: miter; stroke-miterlimit: 4; fill: rgb(38,50,56); fill-rule: nonzero; opacity: 1;"  transform=" translate(-313.81, -243.56)" d="M 303.311 265.416 C 303.326 265.14 303.368 264.865 303.436 264.597 C 303.538 263.994 303.686 263.187 303.868 262.164 C 304.277 259.969 304.846 256.865 305.562 253.067 C 307.052 245.187 309.133 234.225 311.509 221.694 V 221.455 H 324.313 L 324.245 221.808 C 320.652 239.626 317.422 255.466 315.421 265.507 V 265.655 H 315.273 L 306.37 265.552 H 304.095 C 303.842 265.569 303.587 265.569 303.334 265.552 H 304.175 H 306.54 L 315.319 265.45 L 315.137 265.598 C 317.115 255.546 320.231 239.695 323.733 221.853 L 324.017 222.206 H 311.759 L 312.044 221.979 C 309.576 234.396 307.416 245.266 305.858 253.078 C 305.073 256.956 304.448 260.071 303.993 262.266 L 303.481 264.756 C 303.481 265.018 303.368 265.234 303.334 265.404 L 303.311 265.416 Z" stroke-linecap="round" />
</g>
		<g transform="matrix(1 0 0 1 70.09 12.54)"  >
<path style="stroke: none; stroke-width: 1; stroke-dasharray: none; stroke-linecap: butt; stroke-dashoffset: 0; stroke-linejoin: miter; stroke-miterlimit: 4; fill: rgb(38,50,56); fill-rule: nonzero; opacity: 1;"  transform=" translate(-296.59, -227.54)" d="M 283.582 265.416 C 283.572 265.295 283.572 265.173 283.582 265.052 L 283.764 263.915 C 283.935 262.914 284.173 261.481 284.492 259.639 C 285.151 255.876 286.095 250.452 287.278 243.72 C 289.688 230.075 293.043 211.187 296.841 189.776 V 189.537 H 309.644 L 309.588 189.878 C 303.652 222.388 298.41 250.713 295.635 265.416 V 265.541 H 295.51 L 286.561 265.45 H 284.287 H 283.537 H 284.344 H 286.675 L 295.522 265.37 L 295.385 265.484 C 297.978 250.702 303.095 222.399 309.03 189.901 L 309.326 190.253 H 297.17 L 297.455 190.003 C 293.577 211.301 290.143 230.131 287.664 243.674 C 286.413 250.429 285.39 255.875 284.708 259.651 L 283.889 263.983 C 283.798 264.461 283.73 264.836 283.673 265.12 L 283.582 265.416 Z" stroke-linecap="round" />
</g>
		<g transform="matrix(1 0 0 1 46.49 34.79)"  >
<path style="stroke: none; stroke-width: 1; stroke-dasharray: none; stroke-linecap: butt; stroke-dashoffset: 0; stroke-linejoin: miter; stroke-miterlimit: 4; fill: rgb(38,50,56); fill-rule: nonzero; opacity: 1;"  transform=" translate(-272.99, -249.8)" d="M 263.887 265.416 C 263.896 265.225 263.919 265.035 263.956 264.847 C 264.035 264.404 264.126 263.847 264.24 263.142 C 264.501 261.572 264.877 259.389 265.377 256.672 C 266.366 251.043 267.742 243.231 269.323 234.202 V 233.964 H 282.115 L 282.047 234.316 C 279.693 246.597 277.578 257.649 276.077 265.461 V 265.632 H 275.918 L 267.049 265.518 L 264.649 265.416 C 264.388 265.432 264.126 265.432 263.865 265.416 H 264.729 H 267.128 L 275.861 265.302 L 275.656 265.461 C 277.112 257.649 279.17 246.574 281.444 234.282 L 281.74 234.634 H 269.562 L 269.834 234.407 C 268.152 243.333 266.707 251.054 265.65 256.615 C 265.127 259.344 264.695 261.55 264.388 263.13 C 264.24 263.847 264.126 264.438 264.035 264.881 C 263.996 265.062 263.947 265.241 263.887 265.416 Z" stroke-linecap="round" />
</g>
		<g transform="matrix(1 0 0 1 28.28 24.68)"  >
<path style="stroke: none; stroke-width: 1; stroke-dasharray: none; stroke-linecap: butt; stroke-dashoffset: 0; stroke-linejoin: miter; stroke-miterlimit: 4; fill: rgb(38,50,56); fill-rule: nonzero; opacity: 1;"  transform=" translate(-254.78, -239.68)" d="M 244.181 265.416 C 244.181 265.416 244.181 265.336 244.181 265.177 C 244.181 265.018 244.181 264.734 244.284 264.438 C 244.398 263.744 244.545 262.789 244.739 261.561 C 245.159 259.003 245.751 255.341 246.49 250.793 C 248.036 241.537 250.174 228.665 252.619 214.007 V 213.769 H 265.423 L 265.354 214.121 C 261.602 235.305 258.293 254.033 256.258 265.45 V 265.598 H 256.121 L 247.229 265.495 H 244.898 C 244.644 265.512 244.39 265.512 244.136 265.495 H 244.352 H 244.966 H 247.331 L 256.121 265.404 L 255.951 265.541 L 264.797 214.167 L 265.093 214.519 H 252.96 L 253.244 214.28 C 250.708 228.835 248.48 241.571 246.876 250.793 C 246.058 255.341 245.41 259.037 244.943 261.618 C 244.716 262.857 244.545 263.892 244.409 264.54 L 244.261 265.313 L 244.181 265.416 Z" stroke-linecap="round" />
</g>
		<g transform="matrix(1 0 0 1 10.35 15.77)"  >
<path style="stroke: none; stroke-width: 1; stroke-dasharray: none; stroke-linecap: butt; stroke-dashoffset: 0; stroke-linejoin: miter; stroke-miterlimit: 4; fill: rgb(38,50,56); fill-rule: nonzero; opacity: 1;"  transform=" translate(-236.85, -230.77)" d="M 224.51 265.416 C 224.495 265.306 224.495 265.195 224.51 265.086 C 224.51 264.836 224.601 264.506 224.669 264.085 C 224.828 263.164 225.044 261.811 225.328 260.174 C 225.908 256.762 226.761 251.771 227.807 245.607 C 229.968 233.156 232.981 215.827 236.392 196.212 V 195.973 H 249.196 L 249.139 196.325 C 243.84 225.799 239.155 251.566 236.574 265.45 V 265.575 H 236.449 L 227.523 265.484 H 225.249 H 224.703 H 225.306 H 227.637 L 236.472 265.393 L 236.324 265.518 C 238.735 251.6 243.306 225.811 248.605 196.348 L 248.889 196.689 H 236.711 L 236.995 196.451 C 233.504 215.963 230.411 233.19 228.194 245.573 C 227.057 251.759 226.158 256.728 225.522 260.185 C 225.215 261.891 224.964 263.21 224.794 264.154 C 224.703 264.586 224.646 264.927 224.589 265.188 C 224.532 265.45 224.51 265.416 224.51 265.416 Z" stroke-linecap="round" />
</g>
		<g transform="matrix(1 0 0 1 -12 -40.47)"  >
<path style="stroke: none; stroke-width: 1; stroke-dasharray: none; stroke-linecap: butt; stroke-dashoffset: 0; stroke-linejoin: miter; stroke-miterlimit: 4; fill: rgb(38,50,56); fill-rule: nonzero; opacity: 1;"  transform=" translate(-214.5, -174.54)" d="M 215.947 174.527 C 215.949 174.813 215.867 175.094 215.709 175.333 C 215.552 175.572 215.327 175.758 215.064 175.869 C 214.8 175.98 214.509 176.011 214.228 175.956 C 213.948 175.902 213.689 175.765 213.486 175.564 C 213.283 175.362 213.144 175.105 213.088 174.824 C 213.031 174.544 213.059 174.253 213.168 173.989 C 213.277 173.724 213.462 173.498 213.7 173.339 C 213.937 173.179 214.217 173.094 214.503 173.094 C 214.884 173.094 215.25 173.245 215.52 173.513 C 215.791 173.782 215.944 174.146 215.947 174.527 Z" stroke-linecap="round" />
</g>
		<g transform="matrix(1 0 0 1 -4.94 -40.48)"  >
<path style="stroke: none; stroke-width: 1; stroke-dasharray: none; stroke-linecap: butt; stroke-dashoffset: 0; stroke-linejoin: miter; stroke-miterlimit: 4; fill: rgb(38,50,56); fill-rule: nonzero; opacity: 1;"  transform=" translate(-221.56, -174.53)" d="M 221.564 175.96 C 222.356 175.96 222.997 175.318 222.997 174.527 C 222.997 173.736 222.356 173.094 221.564 173.094 C 220.773 173.094 220.132 173.736 220.132 174.527 C 220.132 175.318 220.773 175.96 221.564 175.96 Z" stroke-linecap="round" />
</g>
		<g transform="matrix(1 0 0 1 2.11 -40.47)"  >
<path style="stroke: none; stroke-width: 1; stroke-dasharray: none; stroke-linecap: butt; stroke-dashoffset: 0; stroke-linejoin: miter; stroke-miterlimit: 4; fill: rgb(38,50,56); fill-rule: nonzero; opacity: 1;"  transform=" translate(-228.61, -174.54)" d="M 230.059 174.527 C 230.061 174.814 229.978 175.094 229.82 175.334 C 229.662 175.573 229.437 175.76 229.172 175.87 C 228.908 175.981 228.617 176.011 228.336 175.955 C 228.054 175.9 227.796 175.762 227.593 175.56 C 227.391 175.357 227.253 175.099 227.198 174.817 C 227.142 174.536 227.172 174.245 227.283 173.981 C 227.393 173.716 227.58 173.491 227.819 173.333 C 228.059 173.175 228.339 173.092 228.626 173.094 C 229.005 173.097 229.368 173.249 229.636 173.517 C 229.904 173.785 230.056 174.148 230.059 174.527 Z" stroke-linecap="round" />
</g>
		<g transform="matrix(1 0 0 1 -11.3 27.23)"  >
<path style="stroke: none; stroke-width: 1; stroke-dasharray: none; stroke-linecap: butt; stroke-dashoffset: 0; stroke-linejoin: miter; stroke-miterlimit: 4; fill: rgb(38,50,56); fill-rule: nonzero; opacity: 1;"  transform=" translate(-215.2, -242.23)" d="M 204.815 265.416 C 204.815 265.416 204.815 265.12 204.94 264.54 C 205.065 263.96 205.179 263.051 205.361 261.959 C 205.759 259.685 206.316 256.353 207.01 252.271 C 208.465 243.925 210.478 232.326 212.786 219.09 V 218.851 H 225.59 L 225.522 219.204 C 222.008 238.148 218.881 254.954 216.936 265.461 V 265.609 H 216.8 L 207.896 265.507 H 205.622 C 205.365 265.523 205.107 265.523 204.849 265.507 H 205.076 H 205.69 H 208.056 L 216.845 265.404 L 216.664 265.552 L 225.021 219.261 L 225.306 219.602 H 213.07 L 213.355 219.363 C 210.955 232.497 208.806 244.004 207.351 252.271 C 206.577 256.376 205.963 259.685 205.52 262.004 C 205.315 263.142 205.145 264.006 205.02 264.643 L 204.883 265.336 C 204.862 265.364 204.839 265.39 204.815 265.416 Z" stroke-linecap="round" />
</g>
		<g transform="matrix(1 0 0 1 80.85 -6.75)"  >
<path style="stroke: none; stroke-width: 1; stroke-dasharray: none; stroke-linecap: butt; stroke-dashoffset: 0; stroke-linejoin: miter; stroke-miterlimit: 4; fill: rgb(238,66,72); fill-rule: nonzero; opacity: 1;"  transform=" translate(-307.36, -208.25)" d="M 337.731 219.147 H 272.825 L 276.532 197.36 H 341.893 L 337.731 219.147 Z" stroke-linecap="round" />
</g>
		<g transform="matrix(1 0 0 1 49.26 7.8)"  >
<path style="stroke: none; stroke-width: 1; stroke-dasharray: none; stroke-linecap: butt; stroke-dashoffset: 0; stroke-linejoin: miter; stroke-miterlimit: 4; fill: rgb(238,66,72); fill-rule: nonzero; opacity: 1;"  transform=" translate(-275.76, -222.8)" d="M 272.825 219.147 L 271.563 226.754 C 271.563 226.754 280.091 218.851 279.955 218.851 H 272.882" stroke-linecap="round" />
</g>
		<g transform="matrix(1 0 0 1 81.46 -10.06)"  >
<path style="stroke: none; stroke-width: 1; stroke-dasharray: none; stroke-linecap: butt; stroke-dashoffset: 0; stroke-linejoin: miter; stroke-miterlimit: 4; fill: rgb(250,250,250); fill-rule: nonzero; opacity: 1;"  transform=" translate(-307.96, -204.93)" d="M 332.102 204.933 C 332.102 205.093 321.288 205.229 307.962 205.229 C 294.635 205.229 283.81 205.093 283.81 204.933 C 283.81 204.774 294.623 204.638 307.962 204.638 C 321.3 204.638 332.102 204.774 332.102 204.933 Z" stroke-linecap="round" />
</g>
		<g transform="matrix(1 0 0 1 80.82 -4.8)"  >
<path style="stroke: none; stroke-width: 1; stroke-dasharray: none; stroke-linecap: butt; stroke-dashoffset: 0; stroke-linejoin: miter; stroke-miterlimit: 4; fill: rgb(250,250,250); fill-rule: nonzero; opacity: 1;"  transform=" translate(-307.32, -210.2)" d="M 331.465 210.198 C 331.465 210.357 320.652 210.494 307.325 210.494 C 293.998 210.494 283.173 210.357 283.173 210.198 C 283.173 210.039 293.987 209.902 307.325 209.902 C 320.663 209.902 331.465 210.028 331.465 210.198 Z" stroke-linecap="round" />
</g>
		<g transform="matrix(1 0 0 1 118.67 159.34)"  >
<path style="stroke: none; stroke-width: 1; stroke-dasharray: none; stroke-linecap: butt; stroke-dashoffset: 0; stroke-linejoin: miter; stroke-miterlimit: 4; fill: rgb(38,50,56); fill-rule: nonzero; opacity: 1;"  transform=" translate(-345.17, -374.34)" d="M 437.625 320.395 H 252.71 V 428.294 H 437.625 V 320.395 Z" stroke-linecap="round" />
</g>
		<g transform="matrix(1 0 0 1 68.33 159.34)"  >
<path style="stroke: none; stroke-width: 1; stroke-dasharray: none; stroke-linecap: butt; stroke-dashoffset: 0; stroke-linejoin: miter; stroke-miterlimit: 4; fill: rgb(69,90,100); fill-rule: nonzero; opacity: 1;"  transform=" translate(-294.83, -374.34)" d="M 336.946 320.395 H 252.71 V 428.294 H 336.946 V 320.395 Z" stroke-linecap="round" />
</g>
		<g transform="matrix(1 0 0 1 67.95 126.95)"  >
<path style="stroke: none; stroke-width: 1; stroke-dasharray: none; stroke-linecap: butt; stroke-dashoffset: 0; stroke-linejoin: miter; stroke-miterlimit: 4; fill: rgb(38,50,56); fill-rule: nonzero; opacity: 1;"  transform=" translate(-294.44, -341.95)" d="M 328.327 357.044 C 328.327 357.044 328.327 356.85 328.327 356.498 C 328.327 356.145 328.327 355.599 328.327 354.929 C 328.327 353.53 328.327 351.517 328.27 348.936 C 328.27 343.751 328.213 336.28 328.156 327.07 L 328.372 327.286 L 260.612 327.365 C 260.351 327.638 260.965 327.013 260.908 327.081 V 334.881 C 260.908 337.463 260.908 340.01 260.908 342.511 C 260.908 347.526 260.908 352.393 260.908 357.044 L 260.635 356.771 L 309.201 356.896 L 323.29 356.975 H 327.065 H 328.054 H 328.395 C 328.293 356.986 328.19 356.986 328.088 356.975 H 327.133 H 323.415 L 309.394 357.055 L 260.635 357.191 H 260.351 V 356.907 C 260.351 352.256 260.351 347.39 260.351 342.375 V 327.081 C 260.283 327.081 260.908 326.512 260.647 326.774 L 328.327 326.819 H 328.543 V 327.024 C 328.543 336.291 328.452 343.796 328.429 349.027 C 328.429 351.585 328.429 353.575 328.372 354.963 C 328.372 355.611 328.372 356.1 328.372 356.498 C 328.371 356.681 328.355 356.863 328.327 357.044 Z" stroke-linecap="round" />
</g>
		<g transform="matrix(1 0 0 1 67.85 127.07)"  >
<path style="stroke: none; stroke-width: 1; stroke-dasharray: none; stroke-linecap: butt; stroke-dashoffset: 0; stroke-linejoin: miter; stroke-miterlimit: 4; fill: rgb(38,50,56); fill-rule: nonzero; opacity: 1;"  transform=" translate(-294.35, -342.06)" d="M 297.364 342.056 C 297.364 342.056 297.296 341.806 297.159 341.386 C 296.969 340.804 296.599 340.298 296.102 339.941 C 295.743 339.682 295.326 339.516 294.887 339.458 C 294.448 339.401 294.002 339.453 293.589 339.612 C 293.089 339.798 292.658 340.133 292.354 340.571 C 292.05 341.009 291.887 341.529 291.887 342.062 C 291.887 342.595 292.05 343.116 292.354 343.554 C 292.658 343.992 293.089 344.326 293.589 344.513 C 294.003 344.665 294.448 344.715 294.886 344.657 C 295.323 344.6 295.741 344.437 296.102 344.183 C 296.599 343.826 296.969 343.32 297.159 342.739 C 297.296 342.318 297.307 342.056 297.364 342.056 C 297.421 342.056 297.455 342.318 297.364 342.796 C 297.232 343.472 296.866 344.08 296.329 344.513 C 295.923 344.843 295.439 345.063 294.923 345.153 C 294.408 345.242 293.878 345.198 293.384 345.024 C 292.77 344.809 292.238 344.409 291.861 343.878 C 291.485 343.347 291.282 342.713 291.282 342.062 C 291.282 341.412 291.485 340.777 291.861 340.246 C 292.238 339.716 292.77 339.315 293.384 339.1 C 293.877 338.928 294.406 338.884 294.921 338.971 C 295.436 339.059 295.92 339.275 296.329 339.6 C 296.867 340.036 297.234 340.649 297.364 341.329 C 297.455 341.806 297.398 342.068 297.364 342.056 Z" stroke-linecap="round" />
</g>
		<g transform="matrix(1 0 0 1 67.99 159.99)"  >
<path style="stroke: none; stroke-width: 1; stroke-dasharray: none; stroke-linecap: butt; stroke-dashoffset: 0; stroke-linejoin: miter; stroke-miterlimit: 4; fill: rgb(38,50,56); fill-rule: nonzero; opacity: 1;"  transform=" translate(-294.49, -374.98)" d="M 328.327 390.042 C 328.327 390.042 328.327 389.849 328.327 389.496 C 328.327 389.144 328.327 388.587 328.327 387.916 C 328.327 386.517 328.327 384.505 328.27 381.935 C 328.27 376.738 328.213 369.279 328.157 360.068 L 328.373 360.284 L 260.613 360.364 L 260.908 360.068 V 367.857 C 260.908 370.439 260.908 372.974 260.908 375.487 C 260.908 380.502 260.908 385.357 260.908 390.019 L 260.635 389.735 L 309.201 389.872 L 323.29 389.951 H 327.065 H 328.054 C 328.168 389.942 328.282 389.942 328.395 389.951 H 328.088 H 327.133 H 323.415 L 309.394 390.031 L 260.635 390.167 H 260.351 V 389.883 C 260.351 385.221 260.351 380.365 260.351 375.351 V 360.091 L 260.647 359.795 L 328.407 359.875 H 328.623 V 360.091 C 328.623 369.358 328.532 376.863 328.509 382.083 C 328.509 384.641 328.509 386.631 328.452 388.03 C 328.452 388.678 328.452 389.167 328.452 389.553 C 328.421 389.719 328.379 389.882 328.327 390.042 Z" stroke-linecap="round" />
</g>
		<g transform="matrix(1 0 0 1 67.85 160.05)"  >
<path style="stroke: none; stroke-width: 1; stroke-dasharray: none; stroke-linecap: butt; stroke-dashoffset: 0; stroke-linejoin: miter; stroke-miterlimit: 4; fill: rgb(38,50,56); fill-rule: nonzero; opacity: 1;"  transform=" translate(-294.35, -375.05)" d="M 297.364 375.055 C 297.364 375.055 297.296 374.794 297.159 374.373 C 296.969 373.791 296.599 373.285 296.102 372.929 C 295.741 372.675 295.323 372.512 294.886 372.455 C 294.448 372.397 294.003 372.447 293.589 372.599 C 293.089 372.785 292.658 373.12 292.354 373.558 C 292.05 373.996 291.887 374.516 291.887 375.05 C 291.887 375.583 292.05 376.103 292.354 376.541 C 292.658 376.979 293.089 377.314 293.589 377.5 C 294.001 377.657 294.447 377.71 294.885 377.654 C 295.323 377.599 295.741 377.437 296.102 377.182 C 296.602 376.823 296.973 376.313 297.159 375.726 C 297.296 375.305 297.307 375.055 297.364 375.055 C 297.421 375.055 297.455 375.317 297.364 375.783 C 297.236 376.464 296.869 377.077 296.329 377.511 C 295.922 377.84 295.437 378.058 294.922 378.145 C 294.406 378.233 293.877 378.187 293.384 378.012 C 292.77 377.797 292.238 377.396 291.861 376.865 C 291.485 376.335 291.282 375.7 291.282 375.05 C 291.282 374.399 291.485 373.764 291.861 373.234 C 292.238 372.703 292.77 372.302 293.384 372.087 C 293.878 371.914 294.408 371.869 294.923 371.959 C 295.439 372.049 295.923 372.269 296.329 372.599 C 296.869 373.034 297.236 373.647 297.364 374.327 C 297.455 374.794 297.398 375.055 297.364 375.055 Z" stroke-linecap="round" />
</g>
		<g transform="matrix(1 0 0 1 67.99 192.94)"  >
<path style="stroke: none; stroke-width: 1; stroke-dasharray: none; stroke-linecap: butt; stroke-dashoffset: 0; stroke-linejoin: miter; stroke-miterlimit: 4; fill: rgb(38,50,56); fill-rule: nonzero; opacity: 1;"  transform=" translate(-294.48, -407.93)" d="M 328.327 423.03 C 328.327 423.03 328.327 422.836 328.327 422.484 C 328.327 422.131 328.327 421.585 328.327 420.915 C 328.327 419.516 328.327 417.503 328.27 414.922 C 328.27 409.737 328.213 402.266 328.156 393.056 L 328.372 393.272 L 260.612 393.351 C 260.351 393.624 260.965 392.999 260.908 393.067 V 400.867 C 260.908 403.449 260.908 405.996 260.908 408.497 C 260.908 413.512 260.908 418.379 260.908 423.03 L 260.635 422.757 L 309.201 422.882 L 323.29 422.961 H 327.065 H 328.054 H 328.395 C 328.293 422.972 328.19 422.972 328.088 422.961 H 327.133 H 323.415 L 309.394 423.03 L 260.635 423.166 H 260.351 V 422.882 C 260.351 418.231 260.351 413.364 260.351 408.35 V 393.067 C 260.283 393.124 260.908 392.498 260.647 392.76 L 328.407 392.851 H 328.623 V 393.056 C 328.623 402.323 328.532 409.839 328.509 415.059 C 328.509 417.617 328.509 419.607 328.452 420.994 C 328.452 421.654 328.452 422.131 328.452 422.529 C 328.422 422.699 328.38 422.866 328.327 423.03 Z" stroke-linecap="round" />
</g>
		<g transform="matrix(1 0 0 1 67.85 193.04)"  >
<path style="stroke: none; stroke-width: 1; stroke-dasharray: none; stroke-linecap: butt; stroke-dashoffset: 0; stroke-linejoin: miter; stroke-miterlimit: 4; fill: rgb(38,50,56); fill-rule: nonzero; opacity: 1;"  transform=" translate(-294.35, -408.05)" d="M 297.364 408.043 C 297.364 408.043 297.296 407.792 297.159 407.372 C 296.969 406.79 296.599 406.284 296.102 405.928 C 295.742 405.671 295.324 405.506 294.886 405.449 C 294.448 405.391 294.002 405.442 293.589 405.598 C 293.089 405.784 292.658 406.119 292.354 406.557 C 292.05 406.995 291.887 407.515 291.887 408.048 C 291.887 408.581 292.05 409.102 292.354 409.54 C 292.658 409.978 293.089 410.312 293.589 410.499 C 294.002 410.654 294.448 410.705 294.886 410.648 C 295.324 410.59 295.742 410.426 296.102 410.169 C 296.599 409.812 296.969 409.306 297.159 408.725 C 297.296 408.304 297.307 408.043 297.364 408.043 C 297.421 408.043 297.455 408.304 297.364 408.782 C 297.231 409.461 296.865 410.072 296.329 410.51 C 295.92 410.835 295.436 411.052 294.921 411.139 C 294.406 411.227 293.877 411.183 293.384 411.01 C 292.77 410.795 292.238 410.395 291.861 409.864 C 291.485 409.334 291.282 408.699 291.282 408.048 C 291.282 407.398 291.485 406.763 291.861 406.232 C 292.238 405.702 292.77 405.301 293.384 405.086 C 293.877 404.914 294.406 404.87 294.921 404.957 C 295.436 405.045 295.92 405.261 296.329 405.586 C 296.867 406.022 297.234 406.635 297.364 407.315 C 297.455 407.792 297.398 408.054 297.364 408.043 Z" stroke-linecap="round" />
</g>
		<g transform="matrix(1 0 0 1 -142.76 159.34)"  >
<path style="stroke: none; stroke-width: 1; stroke-dasharray: none; stroke-linecap: butt; stroke-dashoffset: 0; stroke-linejoin: miter; stroke-miterlimit: 4; fill: rgb(38,50,56); fill-rule: nonzero; opacity: 1;"  transform=" translate(-83.74, -374.34)" d="M 161.514 320.395 H 5.96979 V 428.294 H 161.514 V 320.395 Z" stroke-linecap="round" />
</g>
		<g transform="matrix(1 0 0 1 -4.34 103)"  >
<path style="stroke: none; stroke-width: 1; stroke-dasharray: none; stroke-linecap: butt; stroke-dashoffset: 0; stroke-linejoin: miter; stroke-miterlimit: 4; fill: rgb(38,50,56); fill-rule: nonzero; opacity: 1;"  transform=" translate(-222.16, -318)" d="M 444.323 312.867 H 0 V 323.124 H 444.323 V 312.867 Z" stroke-linecap="round" />
</g>
		<g transform="matrix(1 0 0 1 -213.64 160.7)"  >
<path style="stroke: none; stroke-width: 1; stroke-dasharray: none; stroke-linecap: butt; stroke-dashoffset: 0; stroke-linejoin: miter; stroke-miterlimit: 4; fill: rgb(69,90,100); fill-rule: nonzero; opacity: 1;"  transform=" translate(-12.86, -375.71)" d="M 19.7515 323.124 H 5.96979 V 428.294 H 19.7515 V 323.124 Z" stroke-linecap="round" />
</g>
		<g transform="matrix(1 0 0 1 -51.76 -64.43)"  >
<path style="stroke: none; stroke-width: 1; stroke-dasharray: none; stroke-linecap: butt; stroke-dashoffset: 0; stroke-linejoin: miter; stroke-miterlimit: 4; fill: rgb(38,50,56); fill-rule: nonzero; opacity: 1;"  transform=" translate(-174.74, -150.56)" d="M 178.718 150.568 C 178.627 150.137 178.562 149.7 178.525 149.261 C 178.36 148.092 177.974 146.965 177.388 145.94 C 177.008 145.254 176.43 144.699 175.728 144.348 C 175.332 144.179 174.895 144.13 174.472 144.209 C 174.049 144.288 173.659 144.491 173.351 144.792 C 172.034 146.427 171.316 148.463 171.316 150.563 C 171.316 152.662 172.034 154.699 173.351 156.334 C 173.658 156.637 174.047 156.842 174.47 156.923 C 174.894 157.004 175.331 156.957 175.728 156.788 C 176.428 156.43 177.006 155.872 177.388 155.185 C 177.974 154.16 178.36 153.033 178.525 151.865 C 178.562 151.429 178.626 150.996 178.718 150.568 C 178.792 151.009 178.792 151.458 178.718 151.899 C 178.642 153.123 178.305 154.318 177.729 155.401 C 177.318 156.182 176.68 156.821 175.898 157.232 C 175.435 157.454 174.916 157.529 174.409 157.448 C 173.879 157.344 173.386 157.105 172.976 156.754 C 171.508 155.027 170.702 152.835 170.702 150.568 C 170.702 148.302 171.508 146.109 172.976 144.383 C 173.382 144.024 173.877 143.781 174.409 143.678 C 174.916 143.602 175.434 143.677 175.898 143.894 C 176.68 144.305 177.318 144.943 177.729 145.724 C 178.307 146.811 178.644 148.009 178.718 149.238 C 178.791 149.678 178.791 150.128 178.718 150.568 Z" stroke-linecap="round" />
</g>
		<g transform="matrix(1 0 0 1 -76.25 -54.39)"  >
<path style="stroke: none; stroke-width: 1; stroke-dasharray: none; stroke-linecap: butt; stroke-dashoffset: 0; stroke-linejoin: miter; stroke-miterlimit: 4; fill: rgb(255,190,157); fill-rule: nonzero; opacity: 1;"  transform=" translate(-150.25, -160.61)" d="M 129.63 128.338 L 126.218 196.473 L 155.487 199.225 L 157.102 182.68 C 157.102 182.68 167.336 185.227 170.52 175.71 C 172.51 169.626 174.284 121.993 174.284 121.993 L 129.63 128.338 Z" stroke-linecap="round" />
</g>
		<g transform="matrix(1 0 0 1 -76.49 -68.35)"  >
<path style="stroke: none; stroke-width: 1; stroke-dasharray: none; stroke-linecap: butt; stroke-dashoffset: 0; stroke-linejoin: miter; stroke-miterlimit: 4; fill: rgb(38,50,56); fill-rule: nonzero; opacity: 1;"  transform=" translate(-150.01, -146.65)" d="M 180.504 129.02 C 178.013 134.945 168.621 140.027 168.621 140.027 L 167.086 155.117 C 165.689 155.02 164.287 155.02 162.89 155.117 C 163.64 148.033 154.532 149.431 153.6 154.241 C 152.713 158.881 158 161.985 158 161.985 C 154.35 167.579 152.872 170.536 147.687 175.778 C 142.092 181.463 139.079 181.918 133.291 181.748 L 126.912 181.452 C 126.912 181.452 124.638 176.005 122.989 163.145 C 122.182 156.959 117.304 148.851 118.725 138.788 C 122.637 110.213 154.259 115.284 154.259 115.284 C 166.131 106.051 186.371 115.091 180.504 129.02 Z" stroke-linecap="round" />
</g>
		<g transform="matrix(1 0 0 1 -54.34 -64.03)"  >
<path style="stroke: none; stroke-width: 1; stroke-dasharray: none; stroke-linecap: butt; stroke-dashoffset: 0; stroke-linejoin: miter; stroke-miterlimit: 4; fill: rgb(38,50,56); fill-rule: nonzero; opacity: 1;"  transform=" translate(-172.16, -150.97)" d="M 178.718 150.648 C 176.56 151.064 174.367 151.277 172.169 151.285 C 169.982 151.479 167.783 151.479 165.596 151.285 C 167.752 150.876 169.941 150.666 172.135 150.659 C 174.325 150.465 176.528 150.461 178.718 150.648 Z" stroke-linecap="round" />
</g>
		<g transform="matrix(1 0 0 1 -1.99 50.49)"  >
<path style="stroke: none; stroke-width: 1; stroke-dasharray: none; stroke-linecap: butt; stroke-dashoffset: 0; stroke-linejoin: miter; stroke-miterlimit: 4; fill: rgb(255,190,157); fill-rule: nonzero; opacity: 1;"  transform=" translate(-224.51, -265.5)" d="M 271.961 230.689 L 261.329 237.273 L 257.429 246.369 V 238.41 C 257.429 238.41 260.317 234.998 262.682 232.508 C 265.047 230.018 263.353 228.289 262.682 227.437 C 262.011 226.584 251.834 238.41 251.834 238.41 V 245.232 C 247.092 239.399 244.898 241.4 244.17 242.458 C 243.442 243.515 251.834 251.429 251.834 251.429 V 253.84 L 210.137 276.264 L 199.164 248.973 L 176.751 260.742 L 190.135 293.138 C 191.058 295.38 192.452 297.396 194.223 299.051 C 195.994 300.706 198.1 301.96 200.398 302.729 C 202.697 303.498 205.134 303.764 207.544 303.508 C 209.954 303.252 212.281 302.48 214.367 301.246 L 263.433 272.238 L 266.696 266.792 C 267.829 264.915 268.496 262.793 268.641 260.606 L 270.335 236.101 C 273.314 234.236 271.961 230.689 271.961 230.689 Z" stroke-linecap="round" />
</g>
		<g transform="matrix(1 0 0 1 -18.21 66.86)"  >
<path style="stroke: none; stroke-width: 1; stroke-dasharray: none; stroke-linecap: butt; stroke-dashoffset: 0; stroke-linejoin: miter; stroke-miterlimit: 4; fill: rgb(235,153,110); fill-rule: nonzero; opacity: 1;"  transform=" translate(-208.28, -281.86)" d="M 210.341 276.298 C 209.351 280.135 207.971 283.861 206.225 287.419 C 207.229 283.586 208.608 279.861 210.341 276.298 Z" stroke-linecap="round" />
</g>
		<g transform="matrix(1 0 0 1 39.72 26.67)"  >
<path style="stroke: none; stroke-width: 1; stroke-dasharray: none; stroke-linecap: butt; stroke-dashoffset: 0; stroke-linejoin: miter; stroke-miterlimit: 4; fill: rgb(235,153,110); fill-rule: nonzero; opacity: 1;"  transform=" translate(-266.22, -241.67)" d="M 270.335 236.101 C 269.707 236.425 269.061 236.713 268.402 236.966 C 267.649 237.322 266.978 237.829 266.428 238.455 C 265.879 239.08 265.463 239.812 265.207 240.604 C 264.357 242.894 263.322 245.111 262.114 247.234 C 262.78 244.895 263.632 242.614 264.661 240.411 C 264.993 239.48 265.52 238.631 266.207 237.921 C 266.796 237.373 267.478 236.934 268.22 236.624 C 268.876 236.291 269.599 236.112 270.335 236.101 Z" stroke-linecap="round" />
</g>
		<g transform="matrix(1 0 0 1 41.91 28.54)"  >
<path style="stroke: none; stroke-width: 1; stroke-dasharray: none; stroke-linecap: butt; stroke-dashoffset: 0; stroke-linejoin: miter; stroke-miterlimit: 4; fill: rgb(235,153,110); fill-rule: nonzero; opacity: 1;"  transform=" translate(-268.41, -243.54)" d="M 270.176 239.979 C 269.991 240.004 269.815 240.07 269.659 240.172 C 269.504 240.274 269.373 240.41 269.277 240.57 C 268.948 241.207 268.527 242.207 268.14 243.276 C 267.713 244.629 267.212 245.958 266.639 247.256 C 266.641 245.805 266.963 244.372 267.583 243.06 C 267.95 242.103 268.419 241.188 268.982 240.331 C 269.085 240.189 269.217 240.07 269.37 239.984 C 269.523 239.897 269.693 239.845 269.869 239.831 C 270.085 239.831 270.187 239.945 270.176 239.979 Z" stroke-linecap="round" />
</g>
		<g transform="matrix(1 0 0 1 -77.81 48.84)"  >
<path style="stroke: none; stroke-width: 1; stroke-dasharray: none; stroke-linecap: butt; stroke-dashoffset: 0; stroke-linejoin: miter; stroke-miterlimit: 4; fill: rgb(238,66,72); fill-rule: nonzero; opacity: 1;"  transform=" translate(-148.69, -263.83)" d="M 170.054 256.592 L 174.818 272.727 L 205.054 259.082 C 203.917 255.671 198.959 240.65 189.396 216.771 C 186.777 210.223 182.518 204.46 177.027 200.035 C 171.537 195.61 165 192.672 158.046 191.504 C 148.153 189.855 137.385 188.57 129.095 188.673 C 120.866 188.749 112.911 191.648 106.562 196.884 C 100.212 202.12 95.8516 209.377 94.209 217.441 C 91.6505 230.12 96.1307 238.501 93.2425 266.246 L 92.3214 336.03 L 173.056 338.998 L 170.054 256.592 Z" stroke-linecap="round" />
</g>
		<g transform="matrix(1 0 0 1 -136.99 21.62)"  >
<path style="stroke: none; stroke-width: 1; stroke-dasharray: none; stroke-linecap: butt; stroke-dashoffset: 0; stroke-linejoin: miter; stroke-miterlimit: 4; fill: rgb(238,66,72); fill-rule: nonzero; opacity: 1;"  transform=" translate(-89.51, -236.62)" d="M 96.9949 265.507 C 96.9949 265.507 85.7717 266.166 81.3597 257.672 C 81.3597 257.672 93.4471 212.984 97.6658 207.719 L 96.9949 265.507 Z" stroke-linecap="round" />
</g>
		<g transform="matrix(1 0 0 1 -83.7 9.06)"  >
<path style="stroke: none; stroke-width: 1; stroke-dasharray: none; stroke-linecap: butt; stroke-dashoffset: 0; stroke-linejoin: miter; stroke-miterlimit: 4; fill: rgb(38,50,56); fill-rule: nonzero; opacity: 1;"  transform=" translate(-142.8, -224.06)" d="M 190.92 221.273 C 190.631 221.497 190.308 221.673 189.964 221.797 C 188.975 222.156 187.935 222.351 186.883 222.376 C 185.23 222.368 183.584 222.158 181.982 221.751 C 180.117 221.33 178.036 220.705 175.705 220.318 C 174.49 220.172 173.267 220.107 172.044 220.125 C 170.72 220.23 169.408 220.447 168.121 220.773 C 165.266 221.549 162.524 222.696 159.968 224.184 C 157.204 225.685 154.396 227.459 151.405 229.21 C 148.337 231.115 145.049 232.642 141.615 233.759 C 138.086 234.852 134.317 234.911 130.755 233.929 C 127.525 232.884 124.515 231.254 121.875 229.119 C 119.339 227.152 117.133 225.083 115.052 223.195 C 113.154 221.426 111.141 219.785 109.025 218.283 C 106.014 216.032 102.503 214.542 98.7915 213.939 C 97.4205 213.862 96.0462 213.862 94.6752 213.939 C 95.0105 213.803 95.3622 213.711 95.7213 213.666 C 96.7513 213.502 97.7962 213.453 98.837 213.518 C 102.67 213.963 106.326 215.38 109.458 217.635 C 111.642 219.109 113.717 220.739 115.666 222.513 C 117.781 224.378 120.01 226.402 122.489 228.289 C 125.037 230.309 127.931 231.849 131.028 232.838 C 134.389 233.743 137.938 233.676 141.262 232.644 C 144.602 231.553 147.804 230.076 150.803 228.244 C 153.77 226.527 156.602 224.753 159.422 223.252 C 162.074 221.745 164.915 220.598 167.87 219.841 C 169.222 219.517 170.6 219.312 171.987 219.227 C 173.269 219.24 174.549 219.339 175.819 219.522 C 178.23 219.977 180.288 220.659 182.118 221.137 C 183.663 221.582 185.254 221.849 186.86 221.933 C 188.239 221.925 189.609 221.703 190.92 221.273 Z" stroke-linecap="round" />
</g>
		<g transform="matrix(1 0 0 1 -74.13 61.11)"  >
<path style="stroke: none; stroke-width: 1; stroke-dasharray: none; stroke-linecap: butt; stroke-dashoffset: 0; stroke-linejoin: miter; stroke-miterlimit: 4; fill: rgb(38,50,56); fill-rule: nonzero; opacity: 1;"  transform=" translate(-152.37, -276.11)" d="M 170.588 276.957 C 169.047 276.039 167.345 275.422 165.574 275.138 C 163.644 274.91 161.69 275.018 159.797 275.456 C 157.637 275.888 155.306 276.673 152.747 277.31 C 148.357 278.439 143.76 278.501 139.341 277.492 C 135.929 276.696 134.099 275.616 134.155 275.502 C 134.212 275.388 136.191 276.105 139.511 276.639 C 143.817 277.372 148.228 277.198 152.463 276.127 C 154.953 275.502 157.33 274.74 159.592 274.342 C 161.609 273.934 163.685 273.911 165.71 274.274 C 167.081 274.518 168.384 275.053 169.531 275.843 C 170.327 276.468 170.645 276.912 170.588 276.957 Z" stroke-linecap="round" />
</g>
		<g transform="matrix(1 0 0 1 -74.17 105.88)"  >
<path style="stroke: none; stroke-width: 1; stroke-dasharray: none; stroke-linecap: butt; stroke-dashoffset: 0; stroke-linejoin: miter; stroke-miterlimit: 4; fill: rgb(38,50,56); fill-rule: nonzero; opacity: 1;"  transform=" translate(-152.33, -320.88)" d="M 171.407 318.621 C 171.407 318.621 171.1 319.133 170.338 319.849 C 169.238 320.855 168.006 321.708 166.677 322.385 C 164.682 323.42 162.476 323.98 160.229 324.022 C 157.487 323.947 154.784 323.345 152.269 322.248 C 149.62 321.213 147.198 320.054 144.912 319.405 C 142.892 318.788 140.777 318.542 138.67 318.678 C 137.262 318.762 135.889 319.15 134.644 319.815 C 133.757 320.304 133.348 320.702 133.269 320.622 C 133.189 320.543 133.541 320.065 134.406 319.485 C 135.638 318.592 137.079 318.028 138.59 317.848 C 140.808 317.589 143.056 317.762 145.208 318.359 C 147.76 319.152 150.265 320.086 152.713 321.157 C 155.084 322.194 157.622 322.799 160.206 322.942 C 162.305 322.951 164.38 322.505 166.29 321.634 C 169.644 320.122 171.293 318.45 171.407 318.621 Z" stroke-linecap="round" />
</g>
		<g transform="matrix(1 0 0 1 -110.44 86.83)"  >
<path style="stroke: none; stroke-width: 1; stroke-dasharray: none; stroke-linecap: butt; stroke-dashoffset: 0; stroke-linejoin: miter; stroke-miterlimit: 4; fill: rgb(0,0,0); fill-rule: nonzero; opacity: 0.09;"  transform=" translate(-116.06, -301.84)" d="M 83.85 266.291 C 94.4251 268.452 105.284 266.291 116.053 265.632 C 122.591 265.245 129.834 264.495 134.997 268.554 C 139.09 271.738 140.682 277.094 141.922 282.143 C 146.47 301.405 147.255 318.609 148.267 338.361 L 95.9602 337.224 L 83.85 266.291 Z" stroke-linecap="round" />
</g>
		<g transform="matrix(1 0 0 1 -130.01 31.34)"  >
<path style="stroke: none; stroke-width: 1; stroke-dasharray: none; stroke-linecap: butt; stroke-dashoffset: 0; stroke-linejoin: miter; stroke-miterlimit: 4; fill: rgb(0,0,0); fill-rule: nonzero; opacity: 0.3;"  transform=" translate(-96.48, -246.34)" d="M 97.6658 230.029 L 99.9286 262.641 H 93.0378 L 97.6658 230.029 Z" stroke-linecap="round" />
</g>
		<g transform="matrix(1 0 0 1 -47.3 167.99)"  >
<path style="stroke: none; stroke-width: 1; stroke-dasharray: none; stroke-linecap: butt; stroke-dashoffset: 0; stroke-linejoin: miter; stroke-miterlimit: 4; fill: rgb(38,50,56); fill-rule: nonzero; opacity: 1;"  transform=" translate(-179.2, -382.99)" d="M 112.357 335.984 L 216.175 339.657 C 224.276 339.942 231.943 343.394 237.526 349.271 C 243.11 355.148 246.165 362.981 246.035 371.087 L 245.125 430 H 207.055 L 204.599 379.206 L 112.357 376.772 V 335.984 Z" stroke-linecap="round" />
</g>
		<g transform="matrix(1 0 0 1 -84.43 193.54)"  >
<path style="stroke: none; stroke-width: 1; stroke-dasharray: none; stroke-linecap: butt; stroke-dashoffset: 0; stroke-linejoin: miter; stroke-miterlimit: 4; fill: rgb(69,90,100); fill-rule: nonzero; opacity: 1;"  transform=" translate(-142.07, -408.54)" d="M 147.175 389.849 H 136.964 V 427.225 H 147.175 V 389.849 Z" stroke-linecap="round" />
</g>
		<g transform="matrix(1 0 0 1 -134.54 107.05)"  >
<path style="stroke: none; stroke-width: 1; stroke-dasharray: none; stroke-linecap: butt; stroke-dashoffset: 0; stroke-linejoin: miter; stroke-miterlimit: 4; fill: rgb(69,90,100); fill-rule: nonzero; opacity: 1;"  transform=" translate(-91.96, -322.05)" d="M 51.2834 271.101 V 361.16 C 51.2864 366.831 53.5412 372.268 57.5521 376.277 C 61.5629 380.285 67.0016 382.537 72.6723 382.537 H 132.643 V 271.101 C 132.64 268.573 131.634 266.149 129.845 264.363 C 128.056 262.576 125.631 261.572 123.103 261.572 H 60.8123 C 58.2851 261.572 55.8614 262.576 54.0743 264.363 C 52.2873 266.15 51.2834 268.574 51.2834 271.101 Z" stroke-linecap="round" />
</g>
		<g transform="matrix(1 0 0 1 -86.14 166.93)"  >
<path style="stroke: none; stroke-width: 1; stroke-dasharray: none; stroke-linecap: butt; stroke-dashoffset: 0; stroke-linejoin: miter; stroke-miterlimit: 4; fill: rgb(69,90,100); fill-rule: nonzero; opacity: 1;"  transform=" translate(-140.36, -381.92)" d="M 213.355 389.849 H 67.3051 C 67.3232 385.639 69.0083 381.607 71.9919 378.636 C 74.9754 375.666 79.0142 373.998 83.2246 373.998 H 197.56 C 201.764 373.998 205.796 375.668 208.769 378.64 C 211.741 381.613 213.411 385.645 213.411 389.849 H 213.355 Z" stroke-linecap="round" />
</g>
		<g transform="matrix(1 0 0 1 -124.54 162.35)"  >
<path style="stroke: none; stroke-width: 1; stroke-dasharray: none; stroke-linecap: butt; stroke-dashoffset: 0; stroke-linejoin: miter; stroke-miterlimit: 4; fill: rgb(38,50,56); fill-rule: nonzero; opacity: 1;"  transform=" translate(-101.96, -377.35)" d="M 132.643 371.894 C 132.709 372.784 132.633 373.678 132.416 374.544 C 131.926 376.571 130.859 378.413 129.343 379.846 C 127.827 381.279 125.928 382.242 123.876 382.617 C 122.948 382.768 122.008 382.832 121.067 382.81 H 118.122 H 105 H 81.1209 L 73.9003 382.719 H 71.9331 C 71.7037 382.726 71.4743 382.704 71.2509 382.651 C 71.4765 382.615 71.7046 382.596 71.9331 382.594 L 73.9003 382.537 L 81.1209 382.435 L 105 382.321 H 121.067 C 121.98 382.356 122.894 382.303 123.796 382.162 C 125.393 381.886 126.901 381.236 128.197 380.263 C 130.12 378.842 131.51 376.815 132.143 374.509 C 132.62 372.849 132.563 371.883 132.643 371.894 Z" stroke-linecap="round" />
</g>
		<g transform="matrix(1 0 0 1 -84.44 175.15)"  >
<path style="stroke: none; stroke-width: 1; stroke-dasharray: none; stroke-linecap: butt; stroke-dashoffset: 0; stroke-linejoin: miter; stroke-miterlimit: 4; fill: rgb(38,50,56); fill-rule: nonzero; opacity: 1;"  transform=" translate(-142.06, -390.16)" d="M 151.019 390.156 C 148.046 390.456 145.056 390.554 142.07 390.452 C 139.08 390.555 136.086 390.456 133.109 390.156 C 136.086 389.863 139.08 389.764 142.07 389.86 C 145.056 389.764 148.045 389.863 151.019 390.156 Z" stroke-linecap="round" />
</g>
		<g transform="matrix(1 0 0 1 -68.21 139.89)"  >
<path style="stroke: none; stroke-width: 1; stroke-dasharray: none; stroke-linecap: butt; stroke-dashoffset: 0; stroke-linejoin: miter; stroke-miterlimit: 4; fill: rgb(69,90,100); fill-rule: nonzero; opacity: 1;"  transform=" translate(-158.29, -354.89)" d="M 195.457 383.333 C 195.315 382.968 195.224 382.586 195.184 382.196 C 195.036 381.457 194.843 380.388 194.615 379.001 C 194.149 376.215 193.478 372.178 192.75 367.221 C 192.341 364.742 192.011 361.979 191.465 359.102 C 191.318 358.385 191.181 357.658 191.033 356.907 C 190.885 356.157 190.601 355.452 190.385 354.701 C 190.271 354.337 190.169 353.951 190.055 353.564 C 189.942 353.177 189.771 352.825 189.623 352.427 C 189.316 351.676 189.043 350.915 188.714 350.153 C 187.27 347.039 185.444 344.117 183.278 341.454 C 180.913 338.625 178.161 336.145 175.102 334.085 C 172.058 332.002 168.714 330.391 165.187 329.31 C 161.913 328.27 158.511 327.689 155.078 327.581 C 148.46 327.433 142.433 327.468 137.408 327.399 C 132.382 327.331 128.311 327.274 125.491 327.206 C 124.081 327.206 122.989 327.138 122.239 327.092 C 121.856 327.104 121.474 327.066 121.101 326.979 C 121.473 326.883 121.855 326.841 122.239 326.853 L 125.491 326.74 C 128.299 326.672 132.382 326.615 137.408 326.558 C 142.433 326.501 148.426 326.399 155.112 326.49 C 158.652 326.565 162.163 327.143 165.539 328.207 C 169.185 329.298 172.638 330.951 175.773 333.108 C 178.932 335.222 181.767 337.784 184.188 340.715 C 186.404 343.468 188.265 346.49 189.726 349.709 C 190.055 350.482 190.328 351.278 190.635 352.04 C 190.772 352.427 190.92 352.802 191.067 353.177 C 191.215 353.553 191.283 353.951 191.397 354.314 C 191.613 355.088 191.818 355.838 192.023 356.589 C 192.227 357.339 192.307 358.101 192.443 358.863 C 192.955 361.808 193.228 364.548 193.58 367.027 C 194.229 372.019 194.717 376.067 195.07 378.865 C 195.229 380.263 195.354 381.355 195.422 382.094 C 195.496 382.503 195.508 382.921 195.457 383.333 Z" stroke-linecap="round" />
</g>
		<g transform="matrix(1 0 0 1 -211.08 63.79)"  >
<path style="stroke: none; stroke-width: 1; stroke-dasharray: none; stroke-linecap: butt; stroke-dashoffset: 0; stroke-linejoin: miter; stroke-miterlimit: 4; fill: rgb(238,66,72); fill-rule: nonzero; opacity: 1;"  transform=" translate(-15.42, -278.79)" d="M 11.1549 274.353 C 11.1549 274.353 9.31281 279.505 12.8378 283.234 H 20.1721 C 20.1721 283.234 19.524 274.911 11.1549 274.353 Z" stroke-linecap="round" />
</g>
		<g transform="matrix(1 0 0 1 -211.08 63.79)"  >
<path style="stroke: none; stroke-width: 1; stroke-dasharray: none; stroke-linecap: butt; stroke-dashoffset: 0; stroke-linejoin: miter; stroke-miterlimit: 4; fill: rgb(0,0,0); fill-rule: nonzero; opacity: 0.4;"  transform=" translate(-15.42, -278.79)" d="M 11.1549 274.353 C 11.1549 274.353 9.31281 279.505 12.8378 283.234 H 20.1721 C 20.1721 283.234 19.524 274.911 11.1549 274.353 Z" stroke-linecap="round" />
</g>
		<g transform="matrix(1 0 0 1 -202.71 58.48)"  >
<path style="stroke: none; stroke-width: 1; stroke-dasharray: none; stroke-linecap: butt; stroke-dashoffset: 0; stroke-linejoin: miter; stroke-miterlimit: 4; fill: rgb(238,66,72); fill-rule: nonzero; opacity: 1;"  transform=" translate(-23.79, -273.48)" d="M 23.6517 263.744 C 23.3447 263.38 17.0679 273.205 20.5929 283.234 H 27.5065 C 27.5065 283.234 30.2128 271.567 23.6517 263.744 Z" stroke-linecap="round" />
</g>
		<g transform="matrix(1 0 0 1 -194.58 63.79)"  >
<path style="stroke: none; stroke-width: 1; stroke-dasharray: none; stroke-linecap: butt; stroke-dashoffset: 0; stroke-linejoin: miter; stroke-miterlimit: 4; fill: rgb(238,66,72); fill-rule: nonzero; opacity: 1;"  transform=" translate(-31.92, -278.79)" d="M 35.8983 274.353 C 33.6382 274.505 31.5187 275.504 29.963 277.15 C 28.4073 278.797 27.53 280.969 27.5064 283.234 H 34.4087 C 34.4087 283.234 37.4334 278.981 35.8983 274.353 Z" stroke-linecap="round" />
</g>
		<g transform="matrix(1 0 0 1 -202.34 82.86)"  >
<path style="stroke: none; stroke-width: 1; stroke-dasharray: none; stroke-linecap: butt; stroke-dashoffset: 0; stroke-linejoin: miter; stroke-miterlimit: 4; fill: rgb(69,90,100); fill-rule: nonzero; opacity: 1;"  transform=" translate(-24.16, -297.86)" d="M 12.2692 282.848 C 9.88483 284.559 8.03549 286.913 6.93638 289.634 C 5.83727 292.356 5.53358 295.334 6.06065 298.221 C 7.83453 308.455 18.637 312.867 18.637 312.867 H 30.6107 C 30.6107 312.867 42.8004 307.489 42.5048 296.425 C 42.2091 285.361 34.9544 283.007 34.9544 283.007 L 12.2692 282.848 Z" stroke-linecap="round" />
</g>
		<g transform="matrix(1 0 0 1 -202.37 80.01)"  >
<path style="stroke: none; stroke-width: 1; stroke-dasharray: none; stroke-linecap: butt; stroke-dashoffset: 0; stroke-linejoin: miter; stroke-miterlimit: 4; fill: rgb(38,50,56); fill-rule: nonzero; opacity: 1;"  transform=" translate(-24.13, -295.02)" d="M 42.4593 295.185 C 42.1882 294.728 41.8553 294.311 41.4701 293.946 C 40.9133 293.501 40.2737 293.172 39.5885 292.977 C 38.9034 292.781 38.1863 292.724 37.4788 292.809 C 35.3612 293.21 33.3602 294.08 31.6228 295.356 C 30.5191 296.061 29.3501 296.659 28.1318 297.141 C 26.7877 297.652 25.3319 297.797 23.9132 297.562 C 20.9908 297.061 18.6598 295.492 16.4765 294.446 C 14.6189 293.362 12.4836 292.848 10.3362 292.968 C 8.90055 293.117 7.57136 293.793 6.6065 294.867 C 6.28408 295.29 6.0095 295.748 5.78778 296.231 C 5.79538 296.088 5.82215 295.947 5.86738 295.81 C 5.98522 295.402 6.1738 295.017 6.42456 294.673 C 7.37804 293.477 8.76157 292.702 10.2793 292.513 C 12.537 292.315 14.8008 292.819 16.7608 293.957 C 19.035 295.003 21.3092 296.515 24.0497 296.97 C 25.3711 297.197 26.7293 297.068 27.984 296.595 C 29.173 296.132 30.3152 295.557 31.3953 294.878 C 33.2087 293.591 35.2943 292.739 37.4902 292.388 C 38.2477 292.314 39.0122 292.399 39.7348 292.638 C 40.4574 292.877 41.1221 293.264 41.6861 293.775 C 41.9795 294.063 42.2184 294.402 42.3911 294.776 C 42.448 295.037 42.4821 295.174 42.4593 295.185 Z" stroke-linecap="round" />
</g>
		<g transform="matrix(1 0 0 1 -201.99 82.7)"  >
<path style="stroke: none; stroke-width: 1; stroke-dasharray: none; stroke-linecap: butt; stroke-dashoffset: 0; stroke-linejoin: miter; stroke-miterlimit: 4; fill: rgb(38,50,56); fill-rule: nonzero; opacity: 1;"  transform=" translate(-24.51, -297.7)" d="M 42.63 297.857 C 42.3572 297.408 42.0286 296.996 41.6521 296.629 C 41.1037 296.182 40.4703 295.85 39.7901 295.655 C 39.1099 295.46 38.3971 295.404 37.6949 295.492 C 35.6006 295.895 33.623 296.761 31.9071 298.028 C 30.8321 298.738 29.6894 299.34 28.4958 299.825 C 27.1639 300.337 25.7186 300.483 24.3112 300.245 C 21.4116 299.745 19.1033 298.176 16.9428 297.13 C 15.1137 296.047 13.0042 295.533 10.8821 295.651 C 9.45569 295.807 8.13833 296.488 7.18648 297.562 C 6.86894 297.98 6.60177 298.434 6.3905 298.915 C 6.3905 298.915 6.3905 298.767 6.45873 298.494 C 6.58175 298.107 6.76602 297.742 7.00454 297.414 C 7.94272 296.221 9.30954 295.442 10.8138 295.242 C 13.0335 295.04 15.2613 295.529 17.193 296.641 C 19.399 297.687 21.7414 299.199 24.4022 299.654 C 25.7087 299.881 27.0522 299.751 28.2911 299.279 C 29.4625 298.817 30.586 298.242 31.6455 297.562 C 33.4376 296.274 35.5049 295.422 37.6836 295.071 C 38.4249 295.005 39.1719 295.094 39.8768 295.333 C 40.5818 295.572 41.229 295.955 41.7771 296.459 C 42.0654 296.745 42.3003 297.08 42.4708 297.448 C 42.5461 297.575 42.5999 297.713 42.63 297.857 Z" stroke-linecap="round" />
</g>
		<g transform="matrix(1 0 0 1 -214.88 83.49)"  >
<path style="stroke: none; stroke-width: 1; stroke-dasharray: none; stroke-linecap: butt; stroke-dashoffset: 0; stroke-linejoin: miter; stroke-miterlimit: 4; fill: rgb(38,50,56); fill-rule: nonzero; opacity: 1;"  transform=" translate(-11.63, -298.48)" d="M 11.5529 297.789 C 11.5529 297.721 11.8713 297.516 12.292 297.857 C 12.4192 297.967 12.51 298.113 12.5527 298.275 C 12.5953 298.438 12.5877 298.609 12.5308 298.767 C 12.4608 298.962 12.3296 299.128 12.1569 299.242 C 11.9841 299.355 11.7791 299.41 11.5728 299.397 C 11.3664 299.384 11.1697 299.305 11.0124 299.171 C 10.855 299.037 10.7454 298.855 10.7001 298.653 C 10.6601 298.497 10.6633 298.334 10.7094 298.179 C 10.7555 298.025 10.8427 297.886 10.9616 297.778 C 11.371 297.437 11.7235 297.596 11.7007 297.664 C 11.678 297.732 11.4506 297.789 11.28 298.062 C 11.2432 298.13 11.2239 298.206 11.2239 298.284 C 11.2239 298.361 11.2432 298.437 11.28 298.505 C 11.3133 298.585 11.3662 298.655 11.4338 298.709 C 11.5014 298.762 11.5815 298.798 11.6666 298.812 C 11.7506 298.809 11.8324 298.785 11.9041 298.741 C 11.9758 298.697 12.035 298.636 12.076 298.562 C 12.114 298.499 12.1342 298.426 12.1342 298.352 C 12.1342 298.278 12.114 298.205 12.076 298.142 C 11.8258 297.88 11.5643 297.869 11.5529 297.789 Z" stroke-linecap="round" />
</g>
		<g transform="matrix(1 0 0 1 -201.31 79.17)"  >
<path style="stroke: none; stroke-width: 1; stroke-dasharray: none; stroke-linecap: butt; stroke-dashoffset: 0; stroke-linejoin: miter; stroke-miterlimit: 4; fill: rgb(38,50,56); fill-rule: nonzero; opacity: 1;"  transform=" translate(-25.19, -294.16)" d="M 25.1186 293.468 C 25.1186 293.4 25.437 293.184 25.8691 293.536 C 25.9917 293.649 26.0786 293.795 26.119 293.957 C 26.1594 294.119 26.1516 294.289 26.0965 294.446 C 26.0247 294.639 25.8937 294.805 25.7222 294.919 C 25.5506 295.034 25.3473 295.091 25.1413 295.083 C 24.9358 295.063 24.7413 294.981 24.5846 294.846 C 24.4278 294.712 24.3165 294.532 24.2658 294.332 C 24.2245 294.175 24.2282 294.01 24.2765 293.855 C 24.3247 293.7 24.4156 293.562 24.5387 293.457 C 24.948 293.116 25.3005 293.275 25.2664 293.343 C 25.2323 293.411 25.0162 293.468 24.8457 293.741 C 24.8116 293.81 24.7939 293.886 24.7939 293.963 C 24.7939 294.04 24.8116 294.115 24.8457 294.184 C 24.879 294.264 24.9319 294.334 24.9995 294.388 C 25.0671 294.441 25.1472 294.477 25.2323 294.491 C 25.3165 294.49 25.3988 294.465 25.4707 294.421 C 25.5426 294.378 25.6016 294.315 25.6417 294.241 C 25.681 294.178 25.7018 294.105 25.7018 294.031 C 25.7018 293.957 25.681 293.884 25.6417 293.821 C 25.3915 293.559 25.13 293.548 25.1186 293.468 Z" stroke-linecap="round" />
</g>
		<g transform="matrix(1 0 0 1 -188.16 83.68)"  >
<path style="stroke: none; stroke-width: 1; stroke-dasharray: none; stroke-linecap: butt; stroke-dashoffset: 0; stroke-linejoin: miter; stroke-miterlimit: 4; fill: rgb(38,50,56); fill-rule: nonzero; opacity: 1;"  transform=" translate(-38.35, -298.68)" d="M 38.2748 297.982 C 38.2748 297.914 38.5932 297.709 39.0253 298.051 C 39.148 298.163 39.2348 298.31 39.2753 298.471 C 39.3157 298.633 39.3078 298.803 39.2527 298.96 C 39.181 299.154 39.05 299.319 38.8784 299.434 C 38.7069 299.548 38.5036 299.605 38.2976 299.597 C 38.0935 299.578 37.9001 299.497 37.7435 299.365 C 37.5869 299.233 37.4747 299.056 37.422 298.858 C 37.3812 298.699 37.385 298.533 37.4332 298.376 C 37.4814 298.219 37.572 298.079 37.6949 297.971 C 38.1043 297.63 38.4568 297.789 38.4227 297.857 C 38.3885 297.926 38.1725 297.994 38.0019 298.255 C 37.9541 298.323 37.9245 298.401 37.9161 298.483 C 37.9077 298.566 37.9208 298.648 37.954 298.724 C 37.9872 298.8 38.0395 298.865 38.1057 298.915 C 38.1719 298.964 38.2497 298.995 38.3317 299.006 C 38.4159 299.004 38.4982 298.98 38.57 298.936 C 38.6419 298.892 38.7009 298.83 38.741 298.756 C 38.7803 298.692 38.8012 298.62 38.8012 298.545 C 38.8012 298.471 38.7803 298.398 38.741 298.335 C 38.5477 298.085 38.2976 298.062 38.2748 297.982 Z" stroke-linecap="round" />
</g>
		<g transform="matrix(1 0 0 1 172.08 77.64)"  >
<path style="stroke: none; stroke-width: 1; stroke-dasharray: none; stroke-linecap: butt; stroke-dashoffset: 0; stroke-linejoin: miter; stroke-miterlimit: 4; fill: rgb(69,90,100); fill-rule: nonzero; opacity: 1;"  transform=" translate(-398.58, -292.64)" d="M 384.409 272.409 L 388.309 312.867 H 408.026 L 412.745 272.409 H 384.409 Z" stroke-linecap="round" />
</g>
		<g transform="matrix(1 0 0 1 172.11 54.85)"  >
<path style="stroke: none; stroke-width: 1; stroke-dasharray: none; stroke-linecap: butt; stroke-dashoffset: 0; stroke-linejoin: miter; stroke-miterlimit: 4; fill: rgb(38,50,56); fill-rule: nonzero; opacity: 1;"  transform=" translate(-398.61, -269.85)" d="M 384.409 267.178 C 383.195 268.694 382.541 270.581 382.555 272.523 H 414.599 C 414.755 271.548 414.667 270.55 414.344 269.618 C 414.02 268.685 413.471 267.847 412.745 267.178 H 384.409 Z" stroke-linecap="round" />
</g>
		<g transform="matrix(1 0 0 1 172.57 50.55)"  >
<path style="stroke: none; stroke-width: 1; stroke-dasharray: none; stroke-linecap: butt; stroke-dashoffset: 0; stroke-linejoin: miter; stroke-miterlimit: 4; fill: rgb(38,50,56); fill-rule: nonzero; opacity: 1;"  transform=" translate(-399.07, -265.54)" d="M 388.059 263.471 L 386.979 267.474 L 411.165 267.656 L 409.562 263.426 L 388.059 263.471 Z" stroke-linecap="round" />
</g>
		<g transform="matrix(1 0 0 1 171.87 77.74)"  >
<path style="stroke: none; stroke-width: 1; stroke-dasharray: none; stroke-linecap: butt; stroke-dashoffset: 0; stroke-linejoin: miter; stroke-miterlimit: 4; fill: rgb(238,66,72); fill-rule: nonzero; opacity: 1;"  transform=" translate(-398.37, -292.74)" d="M 384.045 282.541 C 384.045 282.916 386.319 302.94 386.319 302.94 H 410.414 L 412.689 282.575 L 384.045 282.541 Z" stroke-linecap="round" />
</g>
</g>
</g>
</svg>