<?xml version="1.0" standalone="no"?>
<!DOCTYPE svg PUBLIC "-//W3C//DTD SVG 20010904//EN"
 "http://www.w3.org/TR/2001/REC-SVG-20010904/DTD/svg10.dtd">
<svg version="1.0" xmlns="http://www.w3.org/2000/svg"
 width="1056.000000pt" height="1056.000000pt" viewBox="0 0 1056.000000 1056.000000"
 preserveAspectRatio="xMidYMid meet">
<metadata>
Created by potrace 1.11, written by Peter Selinger 2001-2013
</metadata>
<g transform="translate(0.000000,1056.000000) scale(0.100000,-0.100000)"
fill="#000000" stroke="none">
<path d="M6627 8093 c-2 -1 -52 -5 -112 -8 -61 -2 -121 -7 -135 -10 -14 -2
-43 -7 -65 -10 -251 -35 -559 -120 -690 -189 -16 -9 -37 -16 -47 -16 -9 0 -18
-3 -20 -7 -1 -5 -43 -28 -93 -53 -75 -38 -197 -112 -215 -130 -3 -3 -30 -24
-60 -47 -75 -56 -154 -134 -222 -218 -31 -38 -63 -77 -70 -86 -64 -77 -155
-279 -192 -424 -43 -171 -51 -379 -21 -570 9 -59 54 -225 72 -265 24 -55 83
-173 96 -195 91 -149 231 -306 372 -419 39 -31 75 -60 80 -64 22 -17 163 -110
220 -144 87 -52 273 -147 278 -142 2 3 10 -2 17 -11 7 -8 20 -15 29 -15 9 0
21 -4 26 -8 6 -5 30 -17 55 -26 45 -18 74 -30 143 -61 21 -9 61 -25 90 -35 29
-10 66 -24 82 -30 17 -7 35 -14 40 -16 6 -1 60 -20 120 -42 61 -22 153 -54
205 -72 223 -75 559 -224 590 -261 3 -3 10 -8 16 -10 46 -17 156 -128 200
-202 94 -160 95 -414 2 -565 -68 -112 -215 -205 -380 -241 -106 -24 -318 -35
-350 -19 -12 6 -18 5 -18 -2 0 -6 -3 -9 -7 -7 -5 3 -37 8 -73 12 -94 10 -115
12 -147 19 -47 10 -77 17 -103 22 -14 3 -29 9 -34 15 -6 5 -18 9 -28 9 -9 0
-53 18 -96 41 -75 39 -158 107 -211 174 -27 35 -98 183 -104 217 -2 13 -6 30
-10 38 -9 25 -19 72 -23 115 -7 62 -13 137 -13 168 l-1 27 -660 0 -661 0 6
-107 c3 -60 10 -135 15 -168 5 -33 12 -78 16 -99 9 -59 57 -221 89 -301 31
-76 118 -248 135 -265 3 -3 19 -25 35 -50 17 -25 35 -50 40 -56 6 -6 29 -33
51 -60 234 -277 575 -485 1009 -617 50 -15 170 -45 209 -53 12 -2 44 -8 71
-13 74 -15 114 -21 170 -27 28 -2 60 -7 72 -9 101 -22 643 -23 758 -1 11 2 45
7 76 10 31 4 66 8 77 11 11 2 42 7 69 11 26 5 50 9 53 9 96 21 127 29 180 44
25 7 50 14 55 15 6 1 15 4 20 7 8 5 39 14 80 25 39 9 270 119 330 157 256 161
424 334 538 554 42 82 98 229 111 293 3 14 7 34 9 45 38 175 41 448 7 630 -30
159 -99 342 -179 475 -25 41 -47 77 -50 80 -4 3 -20 25 -36 50 -47 70 -310
330 -334 330 -4 0 -14 7 -21 15 -18 22 -195 137 -295 191 -241 131 -470 226
-885 364 -189 63 -355 124 -435 160 -80 36 -270 131 -275 139 -3 3 -24 18 -47
33 -65 42 -165 148 -197 208 -108 204 -33 467 170 596 16 10 31 21 34 25 5 7
118 60 135 64 34 7 71 19 80 23 5 4 16 7 25 8 8 2 38 6 65 11 84 13 382 9 410
-6 5 -3 16 -6 25 -7 105 -12 263 -97 348 -188 48 -51 112 -149 112 -171 0 -8
4 -15 10 -15 5 0 9 -3 9 -7 -1 -5 0 -10 1 -13 14 -38 41 -178 43 -225 2 -50 2
-50 37 -52 33 -2 224 -3 238 -1 4 0 10 0 15 -1 17 -5 108 -3 113 1 2 3 23 2
44 -2 22 -4 42 -4 45 0 2 4 25 4 50 0 25 -4 48 -4 50 0 3 4 22 4 42 1 21 -4
52 -4 68 -1 17 3 40 4 53 1 13 -3 57 -4 98 -1 42 3 78 2 80 -1 2 -4 19 -3 38
1 19 4 40 4 46 0 7 -4 24 -4 39 0 14 4 35 4 46 0 11 -4 31 -4 45 0 14 3 36 4
50 0 14 -4 36 -3 50 0 14 4 35 4 46 0 20 -8 21 -5 18 68 -4 117 -10 165 -39
311 -17 87 -60 209 -111 318 -33 67 -102 187 -126 218 -5 6 -25 33 -46 60 -54
73 -216 234 -295 294 -70 52 -234 156 -248 156 -4 0 -10 3 -14 7 -10 10 -118
60 -200 93 -42 17 -210 74 -235 80 -103 25 -161 37 -190 41 -19 2 -42 7 -50
10 -8 3 -35 8 -60 10 -25 3 -61 7 -80 10 -96 12 -475 26 -483 17z"/>
<path d="M94 5289 l1 -2732 53 0 c29 0 55 3 58 6 3 3 18 1 34 -3 16 -4 31 -5
35 -2 7 8 102 5 115 -3 6 -3 10 -2 10 4 0 6 11 6 30 1 17 -5 30 -5 30 0 0 5
13 5 30 0 17 -5 30 -5 30 0 0 5 13 5 30 0 17 -5 30 -5 30 0 0 5 13 5 30 0 17
-5 30 -5 30 0 0 5 13 5 30 0 17 -5 30 -5 30 0 0 5 13 5 30 0 17 -5 30 -5 30 0
0 5 13 5 30 0 17 -5 30 -5 30 0 0 5 13 5 30 0 19 -5 30 -5 30 1 0 6 4 7 10 4
13 -8 108 -11 115 -3 4 3 20 2 36 -2 16 -5 31 -5 34 -1 2 5 23 5 45 1 22 -4
43 -4 45 1 3 4 18 4 34 -1 16 -4 32 -5 36 -2 7 8 102 5 115 -3 6 -3 10 -2 10
3 0 6 14 7 33 3 17 -4 47 -4 65 0 17 3 32 3 32 -2 0 -4 14 -4 30 1 17 5 30 5
30 0 0 -5 13 -5 30 0 17 5 30 5 30 0 0 -5 13 -5 29 0 15 4 34 4 42 0 7 -5 20
-5 29 0 9 5 22 5 30 0 8 -5 21 -5 30 0 9 5 22 5 30 0 8 -5 21 -5 30 0 9 5 22
5 30 0 8 -5 17 -7 21 -5 3 3 60 7 125 10 126 5 213 13 254 21 14 2 39 6 55 9
17 2 55 9 85 15 30 7 63 12 73 12 9 -1 17 3 17 8 0 5 8 7 18 5 10 -1 48 7 85
20 37 12 69 23 70 23 12 0 119 37 182 62 229 90 464 230 655 389 60 50 244
231 282 278 253 316 419 648 517 1038 11 44 22 94 25 110 20 119 26 155 31
195 42 308 36 886 -11 1150 -2 14 -7 42 -10 63 -12 79 -42 200 -86 341 -29 96
-94 261 -126 321 -9 17 -17 35 -18 41 -1 6 -13 28 -26 50 -14 21 -26 44 -28
49 -2 6 -8 19 -15 30 -7 11 -33 55 -59 99 -161 270 -413 532 -675 702 -47 31
-97 64 -111 73 -14 10 -79 45 -145 78 -250 126 -543 216 -815 249 -19 3 -51 7
-70 11 -19 3 -492 8 -1051 10 l-1016 4 1 -2732z m1881 1711 c0 -1 16 -3 35 -6
120 -14 165 -23 260 -55 310 -102 537 -350 659 -719 17 -52 33 -104 35 -115 3
-11 11 -51 20 -90 8 -38 12 -73 10 -77 -3 -4 -1 -8 4 -8 6 0 9 -6 9 -12 -2
-15 13 -153 19 -183 4 -19 16 -333 15 -365 -1 -8 -1 -26 0 -40 1 -27 1 -63 0
-95 -1 -11 -1 -27 0 -35 1 -24 -11 -322 -15 -355 -12 -103 -18 -146 -27 -195
-20 -120 -28 -157 -46 -211 -8 -25 -16 -52 -17 -60 -2 -8 -6 -23 -11 -34 -4
-11 -19 -49 -32 -85 -14 -36 -28 -69 -31 -75 -4 -5 -7 -12 -7 -15 -1 -13 -90
-160 -97 -160 -4 0 -8 -6 -8 -13 0 -19 -122 -149 -195 -207 -89 -71 -255 -154
-350 -176 -39 -9 -125 -26 -150 -30 -16 -3 -168 -7 -337 -9 l-308 -3 0 396
c-1 1757 0 3024 4 3030 3 6 561 8 561 2z"/>
<path d="M9189 8008 c-1 -17 -1 -5419 0 -5437 1 -8 8 -11 21 -8 11 3 22 1 25
-4 3 -4 16 -4 29 1 12 4 29 4 36 0 8 -5 21 -5 30 0 9 5 22 5 30 0 8 -5 21 -5
30 0 9 5 22 5 30 0 8 -5 21 -5 30 0 9 5 22 5 30 0 8 -5 21 -5 31 0 9 5 19 6
23 3 8 -8 102 -7 116 2 5 3 10 3 10 -2 0 -4 34 -8 75 -8 41 0 75 3 75 7 0 4
13 3 29 -2 16 -4 32 -5 36 -2 7 8 102 5 115 -3 6 -3 10 -2 10 4 0 6 11 6 30 1
17 -5 30 -5 30 0 0 5 13 5 30 0 17 -5 30 -5 30 0 0 5 13 5 30 0 17 -5 30 -5
30 0 0 5 13 5 30 0 17 -5 30 -5 30 0 0 5 13 5 30 0 17 -5 30 -5 30 0 0 5 13 5
30 0 17 -5 30 -5 30 0 0 5 13 5 30 0 17 -5 30 -5 30 0 0 5 12 5 28 1 15 -4 33
-6 40 -4 9 4 12 559 12 2734 l0 2729 -655 0 c-517 0 -655 -3 -656 -12z"/>
</g>
</svg>
